<svg width="24" height="24" viewBox="0 0 24 24" fill="none" xmlns="http://www.w3.org/2000/svg">
<path d="M18.725 10.4875L15.975 7.7375C15.625 7.3875 15.525 6.9 15.6625 6.4625C16.125 5.0625 16.375 3.5625 16.375 2C16.375 1.3125 16.9375 0.75 17.625 0.75H22C22.6875 0.75 23.25 1.3125 23.25 2C23.25 13.7375 13.7375 23.25 2 23.25C1.3125 23.25 0.75 22.6875 0.75 22V17.6375C0.75 16.95 1.3125 16.3875 2 16.3875C3.55 16.3875 5.0625 16.1375 6.4625 15.675C6.9 15.525 7.4 15.6375 7.7375 15.975L10.4875 18.725C14.025 16.9125 16.925 14.025 18.725 10.4875Z" fill="#434343"/>
</svg>
