<svg width="30" height="30" viewBox="0 0 30 30" fill="none" xmlns="http://www.w3.org/2000/svg">
<path d="M24.15 0H5.85C2.61913 0 0 2.61913 0 5.85V24.15C0 27.3809 2.61913 30 5.85 30H24.15C27.3809 30 30 27.3809 30 24.15V5.85C30 2.61913 27.3809 0 24.15 0Z" fill="#FFDE00"/>
<path d="M14.9998 3.55586C9.02332 3.55586 4.1792 8.03822 4.1792 13.5647C4.1792 17.647 5.88802 19.597 8.23214 21.3735L8.24391 21.3794V26.1706C8.24391 26.397 8.50273 26.5265 8.68214 26.3912L12.7851 23.3441L12.8733 23.3823C13.5616 23.5088 14.2733 23.5765 14.9998 23.5765C20.9763 23.5765 25.8204 19.0941 25.8204 13.5676C25.8204 8.04116 20.9763 3.55586 14.9998 3.55586Z" fill="#FFDE00"/>
<path d="M14.9998 3.55586C9.02332 3.55586 4.1792 8.03822 4.1792 13.5647C4.1792 17.647 5.88802 19.597 8.23214 21.3735L8.24391 21.3794V26.1706C8.24391 26.397 8.50273 26.5265 8.68214 26.3912L12.7851 23.3441L12.8733 23.3823C13.5616 23.5088 14.2733 23.5765 14.9998 23.5765C20.9763 23.5765 25.8204 19.0941 25.8204 13.5676C25.8204 8.04116 20.9763 3.55586 14.9998 3.55586ZM11.3733 16.1C12.4351 16.1 13.341 15.4647 13.6145 14.4853H15.1821C14.7998 16.3735 13.3292 17.6088 11.3733 17.6088C9.09979 17.6088 7.29685 15.9117 7.29685 13.5529C7.29685 11.1941 9.09979 9.49704 11.3733 9.49704C13.3498 9.49704 14.8292 10.7588 15.1939 12.6794H13.6292C13.391 11.6353 12.4527 10.9853 11.3733 10.9853C9.8439 10.9853 8.82626 12.0765 8.82626 13.5529C8.82626 15.0294 9.98214 16.1 11.3733 16.1ZM21.7116 17.4529H20.2733V14.2088C20.2733 13.4617 19.838 13.0617 19.1704 13.0617C18.4233 13.0617 17.9439 13.5176 17.9439 14.4441V17.4529H16.5057V9.52057H17.9439V12.5059C18.288 11.9823 18.8468 11.7265 19.6057 11.7265C20.2174 11.7265 20.7204 11.9265 21.1116 12.3382C21.5145 12.75 21.7145 13.3088 21.7145 14.0323V17.4529H21.7116Z" fill="#231815"/>
</svg>
